<svg width="144" height="12" xmlns="http://www.w3.org/2000/svg"><path d="M13.69.16c.02 0 .04.02.04.04v2.22c0 .03-.02.04-.04.04H3.13c-.4 0-.67.24-.82.72v.22c0 .45.29.72.86.84h6.82a3.77 3.77 0 0 1 3.74 3.75v.14c0 1.26-.59 2.31-1.76 3.16-.66.4-1.3.59-1.92.59H.08c-.03 0-.04-.01-.04-.04V9.62c0-.03.02-.04.04-.04H10c.58 0 1.02-.34 1.35-1 .05-.19.08-.36.08-.5v-.03c0-.7-.38-1.18-1.12-1.47a2.18 2.18 0 0 0-.33-.04H3.4a3.3 3.3 0 0 1-2.37-.84A3.05 3.05 0 0 1 0 3.5v-.26C0 2.2.52 1.3 1.56.58A3.25 3.25 0 0 1 3.09.16h10.6zm4.8 0c.03 0 .04.02.04.04v4.04h9.07V.2c0-.03.02-.04.04-.04h2.2c.03 0 .05.02.05.04v11.64c0 .03-.02.04-.04.04h-2.2c-.03 0-.05-.01-.05-.04v-5.3h-9.07v5.3c0 .03 0 .04-.04.04h-2.22c-.03 0-.05-.01-.05-.04V.2c.01-.03.02-.04.05-.04h2.22zm16.2 5.97c0 1.05.47 1.96 1.41 2.73.65.48 1.33.71 2.03.71H46c.02.01.04.02.04.05v2.22c0 .03-.02.04-.04.04h-8a5.81 5.81 0 0 1-5.63-5.69V.2c0-.03.02-.04.04-.04h2.27v5.97zM71.66.16l3.67 4.08L79 .16h3.12V.2l-5.2 5.81c.08.12 1.82 2.06 5.2 5.83v.04h-3.12L75.33 7.8l-3.67 4.08h-3.13v-.02l5.2-5.83V6L68.54.18V.16h3.13zm15.51 0l3.67 4.08L94.52.16h3.13V.2L92 6.5v5.34c0 .03-.01.04-.04.04h-2.23c-.02 0-.04-.01-.04-.04v-5.3C89.34 6.11 87.45 4 84.04.18V.16h3.13zm24.92 0c.03 0 .04.02.04.04v2.22c0 .03-.01.04-.04.04h-7.87c-1.14 0-2.11.56-2.91 1.66-.36.6-.53 1.2-.53 1.79v.22c0 1.05.47 1.96 1.4 2.73.65.48 1.34.72 2.07.72h5.6v-5.3c0-.03.01-.04.03-.04h2.2c.04 0 .05.02.05.04v7.56c0 .03-.01.04-.04.04h-7.95c-1.33 0-2.6-.52-3.8-1.55a5.75 5.75 0 0 1-1.88-4.14v-.34c0-1.48.6-2.83 1.8-4.06a5.73 5.73 0 0 1 3.9-1.63h7.93zm15.55 9.42c.03 0 .04.01.04.04v2.22c0 .03-.01.04-.04.04h-13.06c-.02 0-.04-.01-.04-.04V9.62c0-.03.02-.04.04-.04h13.06zm0-5.34c.03 0 .04.02.04.04V6.5c0 .03-.01.04-.04.04h-13.06c-.02 0-.04-.01-.04-.04V4.28c0-.03.02-.04.04-.04h13.06zm0-4.08c.03 0 .04.02.04.04v2.22c0 .03-.01.04-.04.04h-13.06c-.02 0-.04 0-.04-.04V.2c0-.03.02-.04.04-.04h13.06zm4.86 0c5.77 5.45 8.79 8.3 9.06 8.54V.2c0-.03.02-.04.04-.04h2.2c.03 0 .04.02.04.04v11.64c0 .03-.01.04-.04.04h-2.24l-9.07-8.56v8.52c0 .03-.02.04-.04.04h-2.23c-.03 0-.04-.01-.04-.04V.2c0-.03.02-.04.04-.04h2.28zm-70.47 0a5.75 5.75 0 0 1 4.76 2.71c.61.97.92 1.93.92 2.87v.56a5.81 5.81 0 0 1-5.68 5.58H58a5.81 5.81 0 0 1-5.63-5.69v-.34c0-1.48.6-2.83 1.8-4.06a5.73 5.73 0 0 1 3.9-1.63h3.96zm-.06 9.42c1.08 0 2.01-.5 2.8-1.5a3.6 3.6 0 0 0 .65-2.05c0-1.34-.64-2.4-1.92-3.18a3.63 3.63 0 0 0-1.57-.39h-3.8c-1.15 0-2.12.56-2.92 1.66-.35.6-.53 1.2-.53 1.79v.22c0 1.05.47 1.96 1.4 2.73.65.48 1.34.72 2.07.72h3.82z" fill="#323A4A" fill-rule="evenodd"/></svg>